<svg width="221" height="34" viewBox="0 0 221 34" fill="none" xmlns="http://www.w3.org/2000/svg">
<path d="M48.256 26V9.2H50.824L58.168 21.464H56.824L64.048 9.2H66.616L66.64 26H63.688L63.664 13.832H64.288L58.144 24.08H56.752L50.512 13.832H51.232V26H48.256ZM79.4019 26.24C77.0979 26.24 75.2899 25.592 73.9779 24.296C72.6819 23 72.0339 21.128 72.0339 18.68V9.2H75.1539V18.56C75.1539 20.288 75.5219 21.544 76.2579 22.328C77.0099 23.112 78.0659 23.504 79.4259 23.504C80.7859 23.504 81.8339 23.112 82.5699 22.328C83.3059 21.544 83.6739 20.288 83.6739 18.56V9.2H86.7459V18.68C86.7459 21.128 86.0899 23 84.7779 24.296C83.4819 25.592 81.6899 26.24 79.4019 26.24ZM97.3234 26.24C96.0114 26.24 94.7554 26.056 93.5554 25.688C92.3554 25.304 91.4034 24.816 90.6994 24.224L91.7794 21.8C92.4514 22.328 93.2834 22.768 94.2754 23.12C95.2674 23.472 96.2834 23.648 97.3234 23.648C98.2034 23.648 98.9154 23.552 99.4594 23.36C100.003 23.168 100.403 22.912 100.659 22.592C100.915 22.256 101.043 21.88 101.043 21.464C101.043 20.952 100.859 20.544 100.491 20.24C100.123 19.92 99.6434 19.672 99.0514 19.496C98.4754 19.304 97.8274 19.128 97.1074 18.968C96.4034 18.808 95.6914 18.624 94.9714 18.416C94.2674 18.192 93.6194 17.912 93.0274 17.576C92.4514 17.224 91.9794 16.76 91.6114 16.184C91.2434 15.608 91.0594 14.872 91.0594 13.976C91.0594 13.064 91.2994 12.232 91.7794 11.48C92.2754 10.712 93.0194 10.104 94.0114 9.656C95.0194 9.192 96.2914 8.96 97.8274 8.96C98.8354 8.96 99.8354 9.088 100.827 9.344C101.819 9.6 102.683 9.968 103.419 10.448L102.435 12.872C101.683 12.424 100.907 12.096 100.107 11.888C99.3074 11.664 98.5394 11.552 97.8034 11.552C96.9394 11.552 96.2354 11.656 95.6914 11.864C95.1634 12.072 94.7714 12.344 94.5154 12.68C94.2754 13.016 94.1554 13.4 94.1554 13.832C94.1554 14.344 94.3314 14.76 94.6834 15.08C95.0514 15.384 95.5234 15.624 96.0994 15.8C96.6914 15.976 97.3474 16.152 98.0674 16.328C98.7874 16.488 99.4994 16.672 100.203 16.88C100.923 17.088 101.571 17.36 102.147 17.696C102.739 18.032 103.211 18.488 103.563 19.064C103.931 19.64 104.115 20.368 104.115 21.248C104.115 22.144 103.867 22.976 103.371 23.744C102.891 24.496 102.147 25.104 101.139 25.568C100.131 26.016 98.8594 26.24 97.3234 26.24ZM108.209 26V9.2H111.329V26H108.209ZM124.649 26.24C123.369 26.24 122.177 26.032 121.073 25.616C119.985 25.184 119.033 24.584 118.217 23.816C117.417 23.032 116.793 22.112 116.345 21.056C115.897 20 115.673 18.848 115.673 17.6C115.673 16.352 115.897 15.2 116.345 14.144C116.793 13.088 117.425 12.176 118.241 11.408C119.057 10.624 120.009 10.024 121.097 9.608C122.185 9.176 123.377 8.96 124.673 8.96C126.049 8.96 127.305 9.2 128.441 9.68C129.577 10.144 130.537 10.84 131.321 11.768L129.305 13.664C128.697 13.008 128.017 12.52 127.265 12.2C126.513 11.864 125.697 11.696 124.817 11.696C123.937 11.696 123.129 11.84 122.393 12.128C121.673 12.416 121.041 12.824 120.497 13.352C119.969 13.88 119.553 14.504 119.249 15.224C118.961 15.944 118.817 16.736 118.817 17.6C118.817 18.464 118.961 19.256 119.249 19.976C119.553 20.696 119.969 21.32 120.497 21.848C121.041 22.376 121.673 22.784 122.393 23.072C123.129 23.36 123.937 23.504 124.817 23.504C125.697 23.504 126.513 23.344 127.265 23.024C128.017 22.688 128.697 22.184 129.305 21.512L131.321 23.432C130.537 24.344 129.577 25.04 128.441 25.52C127.305 26 126.041 26.24 124.649 26.24Z" fill="#CF1E1F"/>
<path d="M150.816 26.24C149.504 26.24 148.296 26.024 147.192 25.592C146.088 25.16 145.128 24.56 144.312 23.792C143.496 23.008 142.864 22.096 142.416 21.056C141.968 20 141.744 18.848 141.744 17.6C141.744 16.352 141.968 15.208 142.416 14.168C142.864 13.112 143.496 12.2 144.312 11.432C145.128 10.648 146.088 10.04 147.192 9.608C148.296 9.176 149.496 8.96 150.792 8.96C152.104 8.96 153.304 9.176 154.392 9.608C155.496 10.04 156.456 10.648 157.272 11.432C158.088 12.2 158.72 13.112 159.168 14.168C159.616 15.208 159.84 16.352 159.84 17.6C159.84 18.848 159.616 20 159.168 21.056C158.72 22.112 158.088 23.024 157.272 23.792C156.456 24.56 155.496 25.16 154.392 25.592C153.304 26.024 152.112 26.24 150.816 26.24ZM150.792 23.504C151.64 23.504 152.424 23.36 153.144 23.072C153.864 22.784 154.488 22.376 155.016 21.848C155.544 21.304 155.952 20.68 156.24 19.976C156.544 19.256 156.696 18.464 156.696 17.6C156.696 16.736 156.544 15.952 156.24 15.248C155.952 14.528 155.544 13.904 155.016 13.376C154.488 12.832 153.864 12.416 153.144 12.128C152.424 11.84 151.64 11.696 150.792 11.696C149.944 11.696 149.16 11.84 148.44 12.128C147.736 12.416 147.112 12.832 146.568 13.376C146.04 13.904 145.624 14.528 145.32 15.248C145.032 15.952 144.888 16.736 144.888 17.6C144.888 18.448 145.032 19.232 145.32 19.952C145.624 20.672 146.04 21.304 146.568 21.848C147.096 22.376 147.72 22.784 148.44 23.072C149.16 23.36 149.944 23.504 150.792 23.504ZM161.536 26L169.096 9.2H172.168L179.752 26H176.488L169.984 10.856H171.232L164.752 26H161.536ZM165.016 22.112L165.856 19.664H174.928L175.768 22.112H165.016ZM188.097 26.24C186.785 26.24 185.529 26.056 184.329 25.688C183.129 25.304 182.177 24.816 181.473 24.224L182.553 21.8C183.225 22.328 184.057 22.768 185.049 23.12C186.041 23.472 187.057 23.648 188.097 23.648C188.977 23.648 189.689 23.552 190.233 23.36C190.777 23.168 191.177 22.912 191.433 22.592C191.689 22.256 191.817 21.88 191.817 21.464C191.817 20.952 191.633 20.544 191.265 20.24C190.897 19.92 190.417 19.672 189.825 19.496C189.249 19.304 188.601 19.128 187.881 18.968C187.177 18.808 186.465 18.624 185.745 18.416C185.041 18.192 184.393 17.912 183.801 17.576C183.225 17.224 182.753 16.76 182.385 16.184C182.017 15.608 181.833 14.872 181.833 13.976C181.833 13.064 182.073 12.232 182.553 11.48C183.049 10.712 183.793 10.104 184.785 9.656C185.793 9.192 187.065 8.96 188.601 8.96C189.609 8.96 190.609 9.088 191.601 9.344C192.593 9.6 193.457 9.968 194.193 10.448L193.209 12.872C192.457 12.424 191.681 12.096 190.881 11.888C190.081 11.664 189.313 11.552 188.577 11.552C187.713 11.552 187.009 11.656 186.465 11.864C185.937 12.072 185.545 12.344 185.289 12.68C185.049 13.016 184.929 13.4 184.929 13.832C184.929 14.344 185.105 14.76 185.457 15.08C185.825 15.384 186.297 15.624 186.873 15.8C187.465 15.976 188.121 16.152 188.841 16.328C189.561 16.488 190.273 16.672 190.977 16.88C191.697 17.088 192.345 17.36 192.921 17.696C193.513 18.032 193.985 18.488 194.337 19.064C194.705 19.64 194.889 20.368 194.889 21.248C194.889 22.144 194.641 22.976 194.145 23.744C193.665 24.496 192.921 25.104 191.913 25.568C190.905 26.016 189.633 26.24 188.097 26.24ZM198.983 26V9.2H202.103V26H198.983ZM212.855 26.24C211.543 26.24 210.287 26.056 209.087 25.688C207.887 25.304 206.935 24.816 206.231 24.224L207.311 21.8C207.983 22.328 208.815 22.768 209.807 23.12C210.799 23.472 211.815 23.648 212.855 23.648C213.735 23.648 214.447 23.552 214.991 23.36C215.535 23.168 215.935 22.912 216.191 22.592C216.447 22.256 216.575 21.88 216.575 21.464C216.575 20.952 216.391 20.544 216.023 20.24C215.655 19.92 215.175 19.672 214.583 19.496C214.007 19.304 213.359 19.128 212.639 18.968C211.935 18.808 211.223 18.624 210.503 18.416C209.799 18.192 209.151 17.912 208.559 17.576C207.983 17.224 207.511 16.76 207.143 16.184C206.775 15.608 206.591 14.872 206.591 13.976C206.591 13.064 206.831 12.232 207.311 11.48C207.807 10.712 208.551 10.104 209.543 9.656C210.551 9.192 211.823 8.96 213.359 8.96C214.367 8.96 215.367 9.088 216.359 9.344C217.351 9.6 218.215 9.968 218.951 10.448L217.967 12.872C217.215 12.424 216.439 12.096 215.639 11.888C214.839 11.664 214.071 11.552 213.335 11.552C212.471 11.552 211.767 11.656 211.223 11.864C210.695 12.072 210.303 12.344 210.047 12.68C209.807 13.016 209.687 13.4 209.687 13.832C209.687 14.344 209.863 14.76 210.215 15.08C210.583 15.384 211.055 15.624 211.631 15.8C212.223 15.976 212.879 16.152 213.599 16.328C214.319 16.488 215.031 16.672 215.735 16.88C216.455 17.088 217.103 17.36 217.679 17.696C218.271 18.032 218.743 18.488 219.095 19.064C219.463 19.64 219.647 20.368 219.647 21.248C219.647 22.144 219.399 22.976 218.903 23.744C218.423 24.496 217.679 25.104 216.671 25.568C215.663 26.016 214.391 26.24 212.855 26.24Z" fill="#1F2C4D"/>
<path d="M10.625 23.729C10.625 20.0796 12.1274 16.776 14.5431 14.3977C13.2413 13.8002 11.7984 13.4585 10.271 13.4585C4.5985 13.4585 0 18.057 0 23.729C0 29.4015 4.5985 34 10.271 34C11.7984 34 13.2409 33.6583 14.5431 33.0608C12.1274 30.6825 10.625 27.3789 10.625 23.729Z" fill="#F66200"/>
<path d="M23.7286 23.375C20.0791 23.375 16.7756 21.8727 14.3973 19.4557C13.7997 20.7587 13.458 22.2016 13.458 23.7291C13.458 29.4015 18.0565 34 23.7286 34C29.401 34 33.9995 29.4015 33.9995 23.7291C33.9995 22.2016 33.6578 20.7592 33.0603 19.4557C30.682 21.8727 27.3785 23.375 23.7286 23.375Z" fill="#CF1E1F"/>
<path d="M23.7294 0C22.202 0 20.7595 0.3417 19.4561 0.93925C21.873 3.31755 23.3754 6.62108 23.3754 10.271C23.3754 13.9205 21.873 17.224 19.4561 19.6023C20.7591 20.1998 22.202 20.5415 23.7294 20.5415C29.4019 20.5415 34.0004 15.943 34.0004 10.271C34.0004 4.5985 29.4019 0 23.7294 0Z" fill="#F66200"/>
<path d="M10.271 10.625C13.9205 10.625 17.224 12.1274 19.6023 14.5431C20.1998 13.2413 20.5415 11.7984 20.5415 10.271C20.5415 4.5985 15.943 0 10.271 0C4.5985 0 0 4.5985 0 10.271C0 11.7984 0.3417 13.2409 0.93925 14.5431C3.31755 12.1274 6.62108 10.625 10.271 10.625Z" fill="#CF1E1F"/>
</svg>
